<svg width="375" height="120" viewBox="0 0 375 120" fill="none" xmlns="http://www.w3.org/2000/svg">
<mask id="mask0_1145_1370" style="mask-type:alpha" maskUnits="userSpaceOnUse" x="0" y="0" width="375" height="120">
<rect width="375" height="120" fill="#96BBB5"/>
</mask>
<g mask="url(#mask0_1145_1370)">
<path d="M118.408 -16.3921L152.899 -77.3877C163.194 -95.5954 156.734 -118.657 138.596 -128.913C120.389 -139.209 97.3272 -132.749 87.071 -114.611L52.58 -53.6154L66.8822 -2.08992L118.408 -16.3921Z" fill="#6B9E97"/>
<path d="M-37.4173 105.383L-71.9083 166.378C-82.2041 184.586 -75.7437 207.648 -57.6061 217.904C-39.3985 228.2 -16.3369 221.739 -6.08064 203.602L28.4103 142.606L14.1082 91.0806L-37.4173 105.383Z" fill="#00584B"/>
<path d="M199.64 91.0019L138.644 56.5109L87.1188 70.8131L101.421 122.339L162.417 156.83C180.624 167.125 203.686 160.665 213.942 142.527C224.198 124.39 217.848 101.298 199.64 91.0019Z" fill="#6B9E97"/>
<path d="M-20.3923 -33.4185L-81.3879 -67.9095C-99.5956 -78.2053 -122.657 -71.7449 -132.913 -53.6073C-143.209 -35.3996 -136.749 -12.338 -118.611 -2.08179L-57.6156 32.4092L-6.09011 18.107L-20.3923 -33.4185Z" fill="#00584B"/>
<path d="M28.48 142.646L47.2249 210.178C52.8241 230.349 73.6228 242.11 93.7945 236.511C113.966 230.912 125.727 210.113 120.128 189.942L101.383 122.41L54.8135 96.0767L28.48 142.646Z" fill="#6B9E97"/>
<path d="M35.4841 85.1465L14.1766 91.12L28.4787 142.646L54.8123 96.076L35.4841 85.1465Z" fill="#00584B"/>
<path d="M45.5063 3.84523L66.8443 -2.01861L52.5117 -53.6537L26.1782 -7.08417L45.5063 3.84523Z" fill="#6B9E97"/>
<path d="M15.2495 12.2439L26.179 -7.08426L-20.3906 -33.4178L-6.05802 18.2174L15.2495 12.2439Z" fill="#00584B"/>
<path d="M65.7435 76.7486L54.8141 96.0767L101.384 122.41L87.0815 70.8848L65.7435 76.7486Z" fill="#6B9E97"/>
<path d="M26.1787 -7.08447L15.2493 12.2437L45.5068 3.84493L26.1787 -7.08447Z" fill="#00584B"/>
<path d="M54.8128 96.0753L65.7422 76.7472L35.4847 85.1459L54.8128 96.0753Z" fill="#00584B"/>
<path d="M138.646 56.5128L206.177 37.7678C226.349 32.1687 238.11 11.3699 232.511 -8.80176C226.911 -28.9735 206.113 -40.7344 185.941 -35.1353L118.41 -16.3903L92.0762 30.1793L138.646 56.5128Z" fill="#6B9E97"/>
<path d="M72.7473 19.2489L92.0754 30.1783L118.409 -16.3913L66.8439 -2.01906L72.7473 19.2489Z" fill="#6B9E97"/>
<path d="M8.24414 69.7429L-11.084 58.8135L-37.4175 105.383L14.178 91.1205L8.24414 69.7429Z" fill="#00584B"/>
<path d="M81.1477 49.5069L87.0816 70.8845L138.647 56.5123L92.0771 30.1788L81.1477 49.5069Z" fill="#6B9E97"/>
<path d="M-0.154671 39.4856L-6.05812 18.2176L-57.6536 32.4802L-11.0841 58.8137L-0.154671 39.4856Z" fill="#00584B"/>
<path d="M-11.0837 58.8129L8.24443 69.7423L-0.154297 39.4848L-11.0837 58.8129Z" fill="#00584B"/>
<path d="M92.0752 30.1779L72.7471 19.2485L81.1458 49.5061L92.0752 30.1779Z" fill="#00584B"/>
<path d="M66.8423 -2.02057L45.5043 3.84327L72.7457 19.2474L66.8423 -2.02057Z" fill="#6B9E97"/>
<path d="M14.1751 91.1189L35.4827 85.1455L8.24121 69.7413L14.1751 91.1189Z" fill="#00584B"/>
<path d="M65.7433 76.7482L87.0813 70.8843L81.1475 49.5067L65.7433 76.7482Z" fill="#6B9E97"/>
<path d="M-6.0578 18.2171L-0.154354 39.485L15.2498 12.2436L-6.0578 18.2171Z" fill="#00584B"/>
<path d="M72.7483 19.249L45.5068 3.84493L15.2493 12.2437L-0.15481 39.4851L8.24392 69.7426L35.4854 85.1467L65.7429 76.748L81.147 49.5066L72.7483 19.249Z" fill="#00584B"/>
</g>
</svg>
