<svg width="40" height="40" viewBox="0 0 40 40" fill="none" xmlns="http://www.w3.org/2000/svg">
<circle cx="20" cy="20" r="20" fill="url(#paint0_linear_1417_13459)"/>
<path opacity="0.5" fill-rule="evenodd" clip-rule="evenodd" d="M11.6323 23.1773V14.0796C11.6323 13.1832 12.3558 12.455 13.2505 12.51C14.0474 12.559 14.99 12.6558 15.7136 12.8468C16.57 13.0727 17.5878 13.5541 18.3927 13.9797C18.8289 14.2104 19.3132 14.318 19.7948 14.3054V26.7121C19.3372 26.7121 18.8797 26.602 18.4663 26.3816C17.6505 25.9468 16.5963 25.4425 15.7136 25.2096C14.998 25.0208 14.0682 24.924 13.277 24.8745C12.3719 24.8179 11.6323 24.0842 11.6323 23.1773Z" fill="#00584B"/>
<path d="M27.9574 23.1773V14.0268C27.9574 13.1514 27.2667 12.4329 26.3918 12.4633C25.4706 12.4954 24.3226 12.5909 23.468 12.8467C22.7272 13.0685 21.8644 13.5134 21.1612 13.9203C20.7407 14.1637 20.2691 14.2929 19.7949 14.3053V26.7121C20.2525 26.7121 20.7101 26.602 21.1234 26.3816C21.9393 25.9467 22.9934 25.4425 23.8762 25.2096C24.5918 25.0207 25.5215 24.924 26.3128 24.8745C27.2179 24.8179 27.9574 24.0841 27.9574 23.1773Z" fill="#00584B"/>
<defs>
<linearGradient id="paint0_linear_1417_13459" x1="20.4082" y1="-31.8367" x2="20.4082" y2="84.4898" gradientUnits="userSpaceOnUse">
<stop stop-color="#96BBB5"/>
<stop offset="1" stop-color="#96BBB5" stop-opacity="0"/>
</linearGradient>
</defs>
</svg>
