<svg width="21" height="21" viewBox="0 0 21 21" fill="none" xmlns="http://www.w3.org/2000/svg">
<path opacity="0.5" d="M15.9175 8.14287V8.71765C15.9175 9.40744 16.1143 10.0818 16.4832 10.6557L17.3873 12.0622C18.213 13.3468 17.5826 15.093 16.1465 15.4992C12.3894 16.562 8.42654 16.562 4.66949 15.4992C3.23332 15.093 2.60293 13.3468 3.42868 12.0622L4.33271 10.6557C4.70162 10.0818 4.89848 9.40744 4.89848 8.71765V8.14287C4.89848 4.98696 7.36516 2.42859 10.408 2.42859C13.4508 2.42859 15.9175 4.98696 15.9175 8.14287Z" fill="#FFB627"/>
<path d="M6.5249 15.9348C7.05628 17.5717 8.59389 18.755 10.4079 18.755C12.2219 18.755 13.7595 17.5717 14.2909 15.9348C11.7232 16.4167 9.09261 16.4167 6.5249 15.9348Z" fill="#FFB627"/>
</svg>
