<svg width="20" height="20" viewBox="0 0 20 20" fill="none" xmlns="http://www.w3.org/2000/svg">
<path fill-rule="evenodd" clip-rule="evenodd" d="M13.0677 4.45678C11.7104 4.45678 10.6058 5.55329 10.6058 6.91127C10.6058 8.26926 11.7104 9.36576 13.0677 9.36576C14.4251 9.36576 15.5297 8.26926 15.5297 6.91127C15.5297 5.55329 14.4251 4.45678 13.0677 4.45678ZM11.8558 6.91127C11.8558 6.24846 12.396 5.70678 13.0677 5.70678C13.7395 5.70678 14.2797 6.24846 14.2797 6.91127C14.2797 7.57408 13.7395 8.11576 13.0677 8.11576C12.396 8.11576 11.8558 7.57408 11.8558 6.91127Z" fill="#7F7F7F"/>
<path fill-rule="evenodd" clip-rule="evenodd" d="M7.94198 17.3986C8.21948 17.0117 8.3088 16.6191 8.30218 16.2694C8.62899 16.3655 8.95233 16.3777 9.26205 16.319C9.9024 16.1975 10.3762 15.7927 10.6276 15.4589L10.632 15.4531L10.6362 15.4472C11.0739 14.8369 11.073 14.2119 10.9658 13.7637C10.9133 13.544 10.8354 13.3634 10.7707 13.2372C10.7381 13.1734 10.7078 13.1217 10.6843 13.0838C10.678 13.0737 10.6722 13.0646 10.6669 13.0564C10.593 12.9184 10.5095 12.81 10.4394 12.7281L10.4469 12.7206L10.8337 12.3354C11.1517 12.4874 11.4967 12.5832 11.7989 12.6458C12.287 12.7468 12.7645 12.7807 13.0676 12.7807C16.3187 12.7807 18.9586 10.1553 18.9586 6.91119C18.9586 3.66713 16.3187 1.04166 13.0676 1.04166C9.81645 1.04166 7.17653 3.66713 7.17653 6.91119C7.17653 7.67541 7.35047 8.32989 7.52189 8.79083C7.56553 8.90818 7.60933 9.01386 7.65062 9.10659L1.60459 15.1279C1.3909 15.3407 1.14023 15.7108 1.06447 16.1743C0.982303 16.677 1.11725 17.2358 1.60459 17.7211L2.33938 18.4529C2.35071 18.4642 2.36247 18.475 2.37463 18.4854C2.58687 18.6666 2.94336 18.8761 3.37176 18.9394C3.83126 19.0073 4.36305 18.9015 4.81348 18.4529L5.2856 17.9827C5.72969 18.2375 6.1991 18.2954 6.63317 18.2123C7.19613 18.1045 7.66438 17.7675 7.93336 17.4103L7.93774 17.4045L7.94198 17.3986ZM8.42653 6.91119C8.42653 4.36231 10.502 2.29166 13.0676 2.29166C15.6332 2.29166 17.7086 4.36231 17.7086 6.91119C17.7086 9.46008 15.6332 11.5307 13.0676 11.5307C12.8399 11.5307 12.448 11.5036 12.0523 11.4217C11.6381 11.336 11.313 11.2087 11.1399 11.065C10.8919 10.8591 10.528 10.8756 10.2997 11.103L9.56485 11.8349C9.39674 12.0023 9.23513 12.1921 9.14985 12.4111C9.04188 12.6884 9.07629 12.9553 9.19984 13.1767C9.27309 13.3081 9.39104 13.4335 9.44016 13.4858L9.45664 13.5035C9.51474 13.5676 9.54656 13.6095 9.5698 13.6558L9.59184 13.6997L9.617 13.7348L9.62266 13.7437C9.63019 13.7558 9.64303 13.7775 9.65821 13.8071C9.68922 13.8676 9.72608 13.9538 9.75011 14.0543C9.79565 14.2448 9.79516 14.4713 9.6248 14.7126C9.50761 14.8654 9.28569 15.0422 9.02908 15.0909C8.81445 15.1316 8.46455 15.1051 7.9976 14.6401C7.75373 14.3972 7.3594 14.3972 7.11553 14.6401L6.8706 14.884C6.63989 15.1138 6.62442 15.4818 6.83411 15.7301C6.83528 15.7315 6.83849 15.7355 6.84332 15.7419C6.85335 15.7552 6.86982 15.778 6.88932 15.8087C6.92935 15.8717 6.97639 15.959 7.00981 16.0588C7.07278 16.2469 7.08267 16.4478 6.93065 16.6639C6.83069 16.7932 6.62785 16.9406 6.39804 16.9846C6.20275 17.022 5.9527 16.9943 5.67075 16.7135C5.42688 16.4706 5.03254 16.4706 4.78867 16.7135L3.93141 17.5672C3.794 17.7041 3.67266 17.7203 3.55453 17.7028C3.41473 17.6821 3.2781 17.6077 3.20097 17.5468L2.48666 16.8354C2.28818 16.6378 2.28025 16.4851 2.2981 16.3759C2.32235 16.2276 2.41459 16.0854 2.48666 16.0136L8.85688 9.66941C9.06258 9.46456 9.09905 9.14459 8.94473 8.8987L8.9429 8.89567C8.94063 8.89188 8.9363 8.88458 8.9302 8.87391C8.91799 8.85254 8.89878 8.81783 8.87483 8.77092C8.82683 8.6769 8.76047 8.53522 8.6935 8.35512C8.55875 7.99279 8.42653 7.4886 8.42653 6.91119ZM6.83411 15.7301C6.83526 15.7314 6.83641 15.7328 6.83757 15.7341L6.83661 15.733L6.83411 15.7301Z" fill="#7F7F7F"/>
</svg>
