<svg width="44" height="44" viewBox="0 0 44 44" fill="none" xmlns="http://www.w3.org/2000/svg">
<circle cx="22" cy="22" r="22" fill="url(#paint0_linear_1206_3267)"/>
<path fill-rule="evenodd" clip-rule="evenodd" d="M27.1626 23.5708C27.1626 27.538 23.9465 30.7541 19.9792 30.7541C18.8699 30.7541 17.8192 30.5026 16.8812 30.0536C16.5588 29.8992 16.1936 29.845 15.8483 29.9374L14.7474 30.232C13.8797 30.4641 13.0859 29.6703 13.318 28.8026L13.6126 27.7018C13.705 27.3565 13.6508 26.9912 13.4965 26.6688C13.0474 25.7308 12.7959 24.6802 12.7959 23.5708C12.7959 19.6035 16.012 16.3875 19.9792 16.3875C23.9465 16.3875 27.1626 19.6035 27.1626 23.5708ZM16.8365 24.4687C17.3324 24.4687 17.7344 24.0667 17.7344 23.5708C17.7344 23.0749 17.3324 22.6729 16.8365 22.6729C16.3406 22.6729 15.9386 23.0749 15.9386 23.5708C15.9386 24.0667 16.3406 24.4687 16.8365 24.4687ZM19.9792 24.4687C20.4751 24.4687 20.8771 24.0667 20.8771 23.5708C20.8771 23.0749 20.4751 22.6729 19.9792 22.6729C19.4833 22.6729 19.0813 23.0749 19.0813 23.5708C19.0813 24.0667 19.4833 24.4687 19.9792 24.4687ZM23.1219 24.4687C23.6178 24.4687 24.0199 24.0667 24.0199 23.5708C24.0199 23.0749 23.6178 22.6729 23.1219 22.6729C22.626 22.6729 22.224 23.0749 22.224 23.5708C22.224 24.0667 22.626 24.4687 23.1219 24.4687Z" fill="#ED639E"/>
<path opacity="0.6" d="M27.1481 24.0273C27.2449 23.9872 27.3405 23.9446 27.4347 23.8995C27.6966 23.7741 27.9934 23.7301 28.274 23.8051L29.1684 24.0444C29.8734 24.2331 30.5184 23.5881 30.3298 22.8831L30.0904 21.9886C30.0154 21.7081 30.0594 21.4113 30.1848 21.1494C30.5497 20.3873 30.754 19.5336 30.754 18.6322C30.754 15.4088 28.1409 12.7958 24.9175 12.7958C22.4841 12.7958 20.3986 14.285 19.5225 16.4017C19.6734 16.3923 19.8257 16.3874 19.979 16.3874C23.9462 16.3874 27.1623 19.6035 27.1623 23.5708C27.1623 23.7241 27.1575 23.8764 27.1481 24.0273Z" fill="#ED639E"/>
<defs>
<linearGradient id="paint0_linear_1206_3267" x1="22.449" y1="-35.0204" x2="22.449" y2="92.9388" gradientUnits="userSpaceOnUse">
<stop stop-color="#F8BFD7"/>
<stop offset="1" stop-color="#F8BFD7" stop-opacity="0"/>
</linearGradient>
</defs>
</svg>
