<svg width="20" height="20" viewBox="0 0 20 20" fill="none" xmlns="http://www.w3.org/2000/svg">
<g clip-path="url(#clip0_1145_1423)">
<path d="M12.8278 3.37803L12.3261 3.9355L12.8278 3.37803ZM16.1268 6.34711L15.625 6.90458L16.1268 6.34711ZM18.0453 8.46174L17.3602 8.76686L17.3602 8.76687L18.0453 8.46174ZM2.6433 17.357L3.17363 16.8267H3.17363L2.6433 17.357ZM17.3573 17.357L16.827 16.8267L16.827 16.8267L17.3573 17.357ZM11.667 17.5833H8.33366V19.0833H11.667V17.5833ZM2.41699 11.6667V8.33332H0.916992V11.6667H2.41699ZM17.5837 11.3024V11.6667H19.0837V11.3024H17.5837ZM12.3261 3.9355L15.625 6.90458L16.6285 5.78964L13.3295 2.82056L12.3261 3.9355ZM19.0837 11.3024C19.0837 9.90648 19.0988 8.98368 18.7304 8.15661L17.3602 8.76687C17.5685 9.23461 17.5837 9.77399 17.5837 11.3024H19.0837ZM15.625 6.90458C16.7611 7.92704 17.1519 8.29911 17.3602 8.76686L18.7304 8.15661C18.3621 7.32953 17.6661 6.72346 16.6285 5.78964L15.625 6.90458ZM8.35849 2.41666C9.68611 2.41666 10.1559 2.42824 10.5726 2.58814L11.11 1.18771C10.3735 0.905078 9.57253 0.916656 8.35849 0.916656V2.41666ZM13.3295 2.82056C12.4315 2.01234 11.8465 1.47029 11.11 1.18771L10.5726 2.58814C10.9895 2.74808 11.3443 3.05193 12.3261 3.9355L13.3295 2.82056ZM8.33366 17.5833C6.74111 17.5833 5.62214 17.5817 4.77602 17.468C3.95148 17.3571 3.49921 17.1523 3.17363 16.8267L2.11297 17.8873C2.7637 18.5381 3.58527 18.8214 4.57615 18.9546C5.54545 19.0849 6.78351 19.0833 8.33366 19.0833V17.5833ZM0.916992 11.6667C0.916992 13.2168 0.915399 14.4549 1.04572 15.4242C1.17894 16.415 1.46224 17.2366 2.11297 17.8873L3.17363 16.8267C2.84805 16.5011 2.6432 16.0488 2.53234 15.2243C2.41859 14.3782 2.41699 13.2592 2.41699 11.6667H0.916992ZM11.667 19.0833C13.2171 19.0833 14.4552 19.0849 15.4245 18.9546C16.4154 18.8214 17.2369 18.5381 17.8877 17.8873L16.827 16.8267C16.5014 17.1523 16.0492 17.3571 15.2246 17.468C14.3785 17.5817 13.2595 17.5833 11.667 17.5833V19.0833ZM17.5837 11.6667C17.5837 13.2592 17.5821 14.3782 17.4683 15.2243C17.3574 16.0488 17.1526 16.5011 16.827 16.8267L17.8877 17.8873C18.5384 17.2366 18.8217 16.415 18.9549 15.4242C19.0853 14.4549 19.0837 13.2168 19.0837 11.6667H17.5837ZM2.41699 8.33332C2.41699 6.74077 2.41859 5.62181 2.53234 4.77569C2.6432 3.95114 2.84805 3.49888 3.17363 3.1733L2.11297 2.11264C1.46224 2.76337 1.17894 3.58494 1.04572 4.57581C0.915399 5.54512 0.916992 6.78318 0.916992 8.33332H2.41699ZM8.35849 0.916656C6.79999 0.916656 5.55598 0.915077 4.5828 1.04532C3.58862 1.17838 2.76429 1.46132 2.11297 2.11264L3.17363 3.1733C3.49863 2.8483 3.95226 2.64309 4.78178 2.53207C5.63231 2.41824 6.75773 2.41666 8.35849 2.41666V0.916656Z" fill="#00584B"/>
<path d="M10.833 2.08334V4.16668C10.833 6.13086 10.833 7.11295 11.4432 7.72315C12.0534 8.33334 13.0355 8.33334 14.9997 8.33334H18.333" stroke="#00584B" stroke-width="1.5"/>
</g>
<defs>
<clipPath id="clip0_1145_1423">
<rect width="20" height="20" fill="white"/>
</clipPath>
</defs>
</svg>
