<svg width="44" height="44" viewBox="0 0 44 44" fill="none" xmlns="http://www.w3.org/2000/svg">
<circle cx="22" cy="22" r="22" fill="url(#paint0_linear_1218_2806)"/>
<path opacity="0.5" d="M21.7752 30.7542C26.7343 30.7542 30.7544 26.7341 30.7544 21.775C30.7544 16.8159 26.7343 12.7958 21.7752 12.7958C16.8162 12.7958 12.7961 16.8159 12.7961 21.775C12.7961 23.2114 13.1333 24.569 13.733 25.773C13.8924 26.0929 13.9454 26.4586 13.853 26.8039L13.3182 28.8027C13.086 29.6704 13.8799 30.4642 14.7475 30.232L16.7463 29.6972C17.0916 29.6048 17.4573 29.6579 17.7773 29.8172C18.9812 30.4169 20.3388 30.7542 21.7752 30.7542Z" fill="#00584B"/>
<path d="M18.0264 22.5382C17.6173 22.5382 17.2856 22.8699 17.2856 23.279C17.2856 23.6881 17.6173 24.0198 18.0264 24.0198H23.4588C23.8679 24.0198 24.1996 23.6881 24.1996 23.279C24.1996 22.8699 23.8679 22.5382 23.4588 22.5382H18.0264Z" fill="#00584B"/>
<path d="M18.0264 19.0812C17.6173 19.0812 17.2856 19.4129 17.2856 19.822C17.2856 20.2311 17.6173 20.5628 18.0264 20.5628H25.9281C26.3372 20.5628 26.6689 20.2311 26.6689 19.822C26.6689 19.4129 26.3372 19.0812 25.9281 19.0812H18.0264Z" fill="#00584B"/>
<defs>
<linearGradient id="paint0_linear_1218_2806" x1="22.449" y1="-35.0204" x2="22.449" y2="92.9388" gradientUnits="userSpaceOnUse">
<stop stop-color="#96BBB5"/>
<stop offset="1" stop-color="#96BBB5" stop-opacity="0"/>
</linearGradient>
</defs>
</svg>
