<svg width="40" height="40" viewBox="0 0 40 40" fill="none" xmlns="http://www.w3.org/2000/svg">
<path fill-rule="evenodd" clip-rule="evenodd" d="M26.6668 11.25C25.5162 11.25 24.5835 12.1828 24.5835 13.3334C24.5835 14.484 25.5162 15.4167 26.6668 15.4167C27.8174 15.4167 28.7502 14.484 28.7502 13.3334C28.7502 12.1828 27.8174 11.25 26.6668 11.25ZM22.0835 13.3334C22.0835 10.8021 24.1355 8.75004 26.6668 8.75004C29.1981 8.75004 31.2502 10.8021 31.2502 13.3334C31.2502 15.8647 29.1981 17.9167 26.6668 17.9167C24.1355 17.9167 22.0835 15.8647 22.0835 13.3334Z" fill="black" fill-opacity="0.4"/>
<path fill-rule="evenodd" clip-rule="evenodd" d="M19.9045 2.08337H20.0958C23.9431 2.08335 26.9582 2.08334 29.3107 2.39962C31.7185 2.72335 33.6186 3.39892 35.1099 4.89027C36.6013 6.38162 37.2769 8.28166 37.6006 10.6896C37.9169 13.042 37.9169 16.0571 37.9168 19.9044V20.0957C37.9169 23.943 37.9169 26.9581 37.6006 29.3105C37.2769 31.7184 36.6013 33.6185 35.1099 35.1098C33.6186 36.6012 31.7185 37.2767 29.3107 37.6005C26.9582 37.9167 23.9431 37.9167 20.0958 37.9167H19.9045C16.0572 37.9167 13.0422 37.9167 10.6897 37.6005C8.28178 37.2767 6.38174 36.6012 4.89039 35.1098C3.39904 33.6185 2.72347 31.7184 2.39974 29.3105C2.08346 26.9581 2.08347 23.943 2.0835 20.0957V19.9044C2.08347 16.0571 2.08346 13.042 2.39974 10.6896C2.72347 8.28166 3.39904 6.38162 4.89039 4.89027C6.38174 3.39892 8.28178 2.72335 10.6897 2.39962C13.0421 2.08334 16.0572 2.08335 19.9045 2.08337ZM6.65816 33.342C5.70873 32.3926 5.16391 31.1081 4.87745 28.9774C4.62165 27.0748 4.58843 24.6476 4.58413 21.4003L7.07593 19.22C8.09946 18.3244 9.64207 18.3757 10.6038 19.3374L17.7533 26.487C19.3282 28.0619 21.8073 28.2766 23.6296 26.996L24.1266 26.6467C25.5569 25.6415 27.492 25.7579 28.7914 26.9274L34.164 31.7627C34.2224 31.8153 34.2845 31.8614 34.3493 31.901C34.0799 32.4692 33.748 32.9362 33.3422 33.342C32.3927 34.2915 31.1082 34.8363 28.9775 35.1228C26.8109 35.4141 23.9639 35.4167 20.0002 35.4167C16.0365 35.4167 13.1894 35.4141 11.0228 35.1228C8.89212 34.8363 7.60758 34.2915 6.65816 33.342ZM11.0228 4.87733C8.89212 5.16379 7.60758 5.70861 6.65816 6.65803C5.70873 7.60746 5.16391 8.892 4.87745 11.0227C4.63556 12.8218 4.5927 15.0902 4.58512 18.0775L5.42968 17.3385C7.44372 15.5762 10.4792 15.6773 12.3715 17.5697L19.5211 24.7192C20.2369 25.4351 21.3638 25.5327 22.1921 24.9506L22.6891 24.6013C25.0729 22.926 28.2981 23.1201 30.4638 25.0692L35.0871 29.2301C35.0994 29.1472 35.1114 29.063 35.1229 28.9774C35.4142 26.8108 35.4168 23.9637 35.4168 20C35.4168 16.0363 35.4142 13.1893 35.1229 11.0227C34.8364 8.892 34.2916 7.60746 33.3422 6.65803C32.3927 5.70861 31.1082 5.16379 28.9775 4.87733C26.8109 4.58603 23.9639 4.58337 20.0002 4.58337C16.0365 4.58337 13.1894 4.58603 11.0228 4.87733Z" fill="black" fill-opacity="0.4"/>
</svg>
