<svg width="40" height="40" viewBox="0 0 40 40" fill="none" xmlns="http://www.w3.org/2000/svg">
<rect width="40" height="40" fill="#1E1E1E"/>
<g clip-path="url(#clip0_1006_3)">
<rect width="375" height="812" transform="translate(-35 -165)" fill="white"/>
<mask id="path-1-inside-1_1006_3" fill="white">
<path d="M-14 -18H319V62H-14V-18Z"/>
</mask>
<path d="M-14 -18H319V62H-14V-18Z" fill="white"/>
<path d="M319 61.8H-14V62.2H319V61.8Z" fill="#ABABAB" mask="url(#path-1-inside-1_1006_3)"/>
<circle cx="20" cy="20" r="20" fill="url(#paint0_linear_1006_3)"/>
<path opacity="0.5" d="M19.7951 27.9586C24.3034 27.9586 27.958 24.3039 27.958 19.7957C27.958 15.2875 24.3034 11.6328 19.7951 11.6328C15.2869 11.6328 11.6323 15.2875 11.6323 19.7957C11.6323 21.1015 11.9389 22.3357 12.484 23.4302C12.6289 23.7211 12.6771 24.0535 12.5931 24.3674L12.1069 26.1845C11.8959 26.9733 12.6175 27.6949 13.4063 27.4839L15.2234 26.9977C15.5373 26.9137 15.8698 26.9619 16.1606 27.1068C17.2551 27.652 18.4893 27.9586 19.7951 27.9586Z" fill="#00584B"/>
<path d="M16.3873 20.4894C16.0154 20.4894 15.7139 20.7909 15.7139 21.1628C15.7139 21.5348 16.0154 21.8363 16.3873 21.8363H21.3258C21.6978 21.8363 21.9993 21.5348 21.9993 21.1628C21.9993 20.7909 21.6978 20.4894 21.3258 20.4894H16.3873Z" fill="#00584B"/>
<path d="M16.3873 17.3467C16.0154 17.3467 15.7139 17.6482 15.7139 18.0201C15.7139 18.392 16.0154 18.6936 16.3873 18.6936H23.5706C23.9426 18.6936 24.2441 18.392 24.2441 18.0201C24.2441 17.6482 23.9426 17.3467 23.5706 17.3467H16.3873Z" fill="#00584B"/>
</g>
<defs>
<linearGradient id="paint0_linear_1006_3" x1="20.4082" y1="-31.8367" x2="20.4082" y2="84.4898" gradientUnits="userSpaceOnUse">
<stop stop-color="#96BBB5"/>
<stop offset="1" stop-color="#96BBB5" stop-opacity="0"/>
</linearGradient>
<clipPath id="clip0_1006_3">
<rect width="375" height="812" fill="white" transform="translate(-35 -165)"/>
</clipPath>
</defs>
</svg>
