<svg width="20" height="20" viewBox="0 0 20 20" fill="none" xmlns="http://www.w3.org/2000/svg">
<path d="M10.625 1.66667C10.625 1.32149 10.3452 1.04167 10 1.04167C9.65482 1.04167 9.375 1.32149 9.375 1.66667V5.00001C9.375 5.34518 9.65482 5.625 10 5.625C10.3452 5.625 10.625 5.34518 10.625 5.00001V1.66667Z" fill="#FC5C65"/>
<path d="M7.32658 3.66399C7.64454 3.52965 7.7934 3.16298 7.65906 2.84502C7.52471 2.52706 7.15805 2.3782 6.84009 2.51254C3.9236 3.74477 1.875 6.63243 1.875 10C1.875 14.4873 5.51269 18.125 10 18.125C14.4873 18.125 18.125 14.4873 18.125 10C18.125 6.63243 16.0764 3.74477 13.1599 2.51254C12.842 2.3782 12.4753 2.52706 12.3409 2.84502C12.2066 3.16298 12.3555 3.52965 12.6734 3.66399C15.1435 4.70761 16.875 7.15233 16.875 10C16.875 13.797 13.797 16.875 10 16.875C6.20304 16.875 3.125 13.797 3.125 10C3.125 7.15233 4.85649 4.70761 7.32658 3.66399Z" fill="#FC5C65"/>
</svg>
