<svg width="115" height="115" viewBox="0 0 115 115" fill="none" xmlns="http://www.w3.org/2000/svg">
<path d="M68.1084 30.9922V10.8623C68.1084 4.85336 63.2319 0 57.2461 0C51.2372 0 46.3838 4.87647 46.3838 10.8623V30.9922L57.2461 41.8545L68.1084 30.9922Z" fill="#6B9E97"/>
<path d="M46.3613 83.4778V103.608C46.3613 109.617 51.2377 114.47 57.2236 114.47C63.2325 114.47 68.0858 109.594 68.0858 103.608V83.4778L57.2236 72.6155L46.3613 83.4778Z" fill="#00584B"/>
<path d="M103.607 46.3611H83.4776L72.6153 57.2234L83.4776 68.0857H103.607C109.616 68.0857 114.47 63.2092 114.47 57.2234C114.47 51.2376 109.616 46.3611 103.607 46.3611Z" fill="#6B9E97"/>
<path d="M30.9922 46.3611H10.8623C4.85336 46.3611 0 51.2376 0 57.2234C0 63.2323 4.87647 68.0857 10.8623 68.0857H30.9922L41.8545 57.2234L30.9922 46.3611Z" fill="#00584B"/>
<path d="M68.1093 83.4778L82.3458 97.7143C86.5983 101.967 93.4623 101.967 97.7148 97.7143C101.967 93.4618 101.967 86.5978 97.7148 82.3453L83.4783 68.1088H68.1093V83.4778Z" fill="#6B9E97"/>
<path d="M46.3614 30.9922L32.1249 16.7556C27.8724 12.5032 21.0084 12.5032 16.7559 16.7556C12.5034 21.0081 12.5034 27.8721 16.7559 32.1246L30.9924 46.3611H46.3614V30.9922Z" fill="#6B9E97"/>
<path d="M61.7302 68.1088L57.2466 72.6155L68.1089 83.4778V68.1088H61.7302Z" fill="#00584B"/>
<path d="M52.74 46.3611L57.2467 41.8776L46.3613 30.9922V46.3611H52.74Z" fill="#6B9E97"/>
<path d="M46.3615 52.7398V46.3611H30.9925L41.8779 57.2465L46.3615 52.7398Z" fill="#00584B"/>
<path d="M68.1093 61.7301V68.1088H83.4783L72.616 57.2465L68.1093 61.7301Z" fill="#6B9E97"/>
<path d="M46.3613 46.3611V52.7398L52.74 46.3611H46.3613Z" fill="#00584B"/>
<path d="M68.1087 68.1088V61.7301L61.73 68.1088H68.1087Z" fill="#00584B"/>
<path d="M83.4783 46.3611L97.7148 32.1246C101.967 27.8721 101.967 21.0081 97.7148 16.7556C93.4623 12.5032 86.5983 12.5032 82.3458 16.7556L68.1093 30.9922V46.3611H83.4783Z" fill="#6B9E97"/>
<path d="M30.9924 68.1088L16.7559 82.3453C12.5034 86.5978 12.5034 93.4618 16.7559 97.7143C21.0084 101.967 27.8724 101.967 32.1249 97.7143L46.3614 83.4778V68.1088H30.9924Z" fill="#00584B"/>
<path d="M61.7302 46.3611H68.1089V30.9922L57.2466 41.8776L61.7302 46.3611Z" fill="#6B9E97"/>
<path d="M52.74 68.1088H46.3613V83.4778L57.2467 72.6155L52.74 68.1088Z" fill="#00584B"/>
<path d="M68.1093 52.7398L72.616 57.2465L83.4783 46.3611H68.1093V52.7398Z" fill="#6B9E97"/>
<path d="M46.3615 61.7301L41.8779 57.2465L30.9925 68.1088H46.3615V61.7301Z" fill="#00584B"/>
<path d="M46.3613 68.1088H52.74L46.3613 61.7301V68.1088Z" fill="#00584B"/>
<path d="M68.1087 46.3611H61.73L68.1087 52.7398V46.3611Z" fill="#00584B"/>
<path d="M57.2461 41.8775L52.7394 46.3611H61.7297L57.2461 41.8775Z" fill="#6B9E97"/>
<path d="M57.2461 72.6155L61.7297 68.1088H52.7394L57.2461 72.6155Z" fill="#00584B"/>
<path d="M68.1093 61.7301L72.616 57.2465L68.1093 52.7399V61.7301Z" fill="#6B9E97"/>
<path d="M41.8778 57.2465L46.3614 61.7301V52.7399L41.8778 57.2465Z" fill="#00584B"/>
<path d="M61.7302 46.3611H52.74L46.3613 52.7398V61.7301L52.74 68.1088H61.7302L68.1089 61.7301V52.7398L61.7302 46.3611Z" fill="#00584B"/>
</svg>
