<svg width="40" height="40" viewBox="0 0 40 40" fill="none" xmlns="http://www.w3.org/2000/svg">
<circle cx="20" cy="20" r="20" fill="url(#paint0_linear_1206_3237)"/>
<path opacity="0.5" d="M25.9175 17.1429V17.7176C25.9175 18.4074 26.1143 19.0818 26.4832 19.6557L27.3873 21.0622C28.213 22.3468 27.5826 24.093 26.1465 24.4992C22.3894 25.562 18.4265 25.562 14.6695 24.4992C13.2333 24.093 12.6029 22.3468 13.4287 21.0622L14.3327 19.6557C14.7016 19.0818 14.8985 18.4074 14.8985 17.7176V17.1429C14.8985 13.987 17.3652 11.4286 20.408 11.4286C23.4508 11.4286 25.9175 13.987 25.9175 17.1429Z" fill="#FFB627"/>
<path d="M16.5249 24.9348C17.0563 26.5717 18.5939 27.755 20.4079 27.755C22.2219 27.755 23.7595 26.5717 24.2909 24.9348C21.7232 25.4167 19.0926 25.4167 16.5249 24.9348Z" fill="#FFB627"/>
<defs>
<linearGradient id="paint0_linear_1206_3237" x1="20.4082" y1="-31.8367" x2="20.4082" y2="84.4898" gradientUnits="userSpaceOnUse">
<stop stop-color="#FFE1A6"/>
<stop offset="1" stop-color="#FFE1A6" stop-opacity="0"/>
</linearGradient>
</defs>
</svg>
