<svg width="44" height="44" viewBox="0 0 44 44" fill="none" xmlns="http://www.w3.org/2000/svg">
<circle cx="22" cy="22" r="22" fill="url(#paint0_linear_1206_3147)"/>
<path fill-rule="evenodd" clip-rule="evenodd" d="M17.0336 20.5176L18.326 21.5945C19.9751 22.9688 20.7997 23.656 21.775 23.656C22.7502 23.656 23.5748 22.9688 25.2239 21.5945L26.5163 20.5176C26.834 20.2528 26.9929 20.1204 27.0777 19.9394C27.1625 19.7584 27.1625 19.5516 27.1625 19.138V17.2854C27.1625 16.9975 27.1625 16.7291 27.1608 16.4787C27.1503 14.8885 27.073 14.0213 26.505 13.4533C25.8475 12.7958 24.7893 12.7958 22.6729 12.7958H20.877C18.7606 12.7958 17.7024 12.7958 17.0449 13.4533C16.4769 14.0213 16.398 14.8885 16.3875 16.4787C16.3858 16.7291 16.3875 16.9975 16.3875 17.2854V19.138C16.3875 19.5516 16.3875 19.7584 16.4722 19.9394C16.557 20.1204 16.7159 20.2528 17.0336 20.5176ZM19.3056 16.3874C19.3056 16.0155 19.6071 15.714 19.979 15.714H23.5707C23.9426 15.714 24.2441 16.0155 24.2441 16.3874C24.2441 16.7594 23.9426 17.0609 23.5707 17.0609H19.979C19.6071 17.0609 19.3056 16.7594 19.3056 16.3874ZM20.2035 19.0812C20.2035 18.7093 20.505 18.4078 20.877 18.4078H22.6728C23.0447 18.4078 23.3462 18.7093 23.3462 19.0812C23.3462 19.4531 23.0447 19.7546 22.6728 19.7546H20.877C20.505 19.7546 20.2035 19.4531 20.2035 19.0812Z" fill="#F29634"/>
<path opacity="0.5" d="M18.3259 21.5946L17.0336 20.5177C16.7158 20.2529 16.557 20.1205 16.4722 19.9395C16.3874 19.7585 16.3874 19.5517 16.3874 19.1381V17.2855C16.3874 17.1873 16.3872 17.0914 16.387 16.9978C16.3867 16.8167 16.3863 16.6439 16.3874 16.4789C15.2201 16.5937 14.4344 16.8531 13.8479 17.4395C12.7959 18.4915 12.7959 20.1854 12.7959 23.5716C12.7959 26.9579 12.7959 28.651 13.8479 29.703C14.8998 30.755 16.593 30.755 19.9792 30.755H23.5709C26.9571 30.755 28.6503 30.755 29.7023 29.703C30.7542 28.651 30.7542 26.9579 30.7542 23.5716C30.7542 20.1854 30.7542 18.4915 29.7023 17.4395C29.1155 16.8527 28.3291 16.5933 27.1608 16.4785C27.1624 16.7289 27.1624 16.9976 27.1624 17.2855V19.1381C27.1624 19.5517 27.1624 19.7585 27.0776 19.9395C26.9929 20.1205 26.834 20.2529 26.5163 20.5177L25.2239 21.5946C23.5748 22.9689 22.7502 23.6561 21.7749 23.6561C20.7997 23.6561 19.9751 22.9689 18.3259 21.5946Z" fill="#F29634"/>
<defs>
<linearGradient id="paint0_linear_1206_3147" x1="22.449" y1="-35.0204" x2="22.449" y2="92.9388" gradientUnits="userSpaceOnUse">
<stop stop-color="#FCCB96"/>
<stop offset="1" stop-color="#FCCB96" stop-opacity="0"/>
</linearGradient>
</defs>
</svg>
