<svg width="126" height="19" viewBox="0 0 126 19" fill="none" xmlns="http://www.w3.org/2000/svg">
<path d="M8.504 18.24C7.336 18.24 6.24 18.024 5.216 17.592C4.208 17.144 3.32 16.528 2.552 15.744C1.8 14.96 1.208 14.048 0.776 13.008C0.344 11.968 0.128 10.848 0.128 9.648C0.128 8.448 0.344 7.336 0.776 6.312C1.208 5.272 1.808 4.36 2.576 3.576C3.344 2.792 4.24 2.184 5.264 1.752C6.304 1.32 7.432 1.104 8.648 1.104C9.976 1.104 11.2 1.36 12.32 1.872C13.44 2.384 14.376 3.12 15.128 4.08L13.568 5.64C13.04 4.872 12.344 4.288 11.48 3.888C10.616 3.472 9.672 3.264 8.648 3.264C7.432 3.264 6.352 3.536 5.408 4.08C4.48 4.624 3.752 5.376 3.224 6.336C2.712 7.296 2.456 8.4 2.456 9.648C2.456 10.912 2.72 12.024 3.248 12.984C3.776 13.944 4.488 14.696 5.384 15.24C6.28 15.784 7.304 16.056 8.456 16.056C9.624 16.056 10.632 15.832 11.48 15.384C12.344 14.936 13.008 14.28 13.472 13.416C13.936 12.536 14.168 11.464 14.168 10.2L15.536 11.184H8.336V9.12H16.496V9.456C16.496 11.392 16.152 13.016 15.464 14.328C14.792 15.624 13.848 16.6 12.632 17.256C11.432 17.912 10.056 18.24 8.504 18.24ZM19.1465 18V6.6H21.3065V18H19.1465ZM21.3065 11.496L20.4905 11.136C20.4905 9.68 20.8265 8.52 21.4985 7.656C22.1705 6.792 23.1385 6.36 24.4025 6.36C24.9785 6.36 25.4985 6.464 25.9625 6.672C26.4265 6.864 26.8585 7.192 27.2585 7.656L25.8425 9.12C25.6025 8.864 25.3385 8.68 25.0505 8.568C24.7625 8.456 24.4265 8.4 24.0425 8.4C23.2425 8.4 22.5865 8.656 22.0745 9.168C21.5625 9.68 21.3065 10.456 21.3065 11.496ZM33.6123 18.24C32.4923 18.24 31.4843 17.976 30.5883 17.448C29.6923 16.92 28.9803 16.208 28.4523 15.312C27.9243 14.4 27.6603 13.384 27.6603 12.264C27.6603 11.16 27.9243 10.168 28.4523 9.288C28.9803 8.392 29.6923 7.68 30.5883 7.152C31.4843 6.624 32.4923 6.36 33.6123 6.36C34.7163 6.36 35.7163 6.624 36.6123 7.152C37.5243 7.664 38.2443 8.368 38.7723 9.264C39.3003 10.16 39.5643 11.16 39.5643 12.264C39.5643 13.384 39.3003 14.4 38.7723 15.312C38.2443 16.208 37.5243 16.92 36.6123 17.448C35.7163 17.976 34.7163 18.24 33.6123 18.24ZM33.6123 16.152C34.3323 16.152 34.9723 15.984 35.5323 15.648C36.0923 15.312 36.5323 14.856 36.8523 14.28C37.1723 13.688 37.3323 13.016 37.3323 12.264C37.3323 11.528 37.1643 10.872 36.8283 10.296C36.5083 9.72 36.0683 9.272 35.5083 8.952C34.9643 8.616 34.3323 8.448 33.6123 8.448C32.8923 8.448 32.2523 8.616 31.6923 8.952C31.1323 9.272 30.6923 9.72 30.3723 10.296C30.0523 10.872 29.8923 11.528 29.8923 12.264C29.8923 13.016 30.0523 13.688 30.3723 14.28C30.6923 14.856 31.1323 15.312 31.6923 15.648C32.2523 15.984 32.8923 16.152 33.6123 16.152ZM44.9339 18L40.4219 6.6H42.6779L45.9419 15.48H45.2219L48.4619 6.6H49.7099L52.9499 15.48H52.2299L55.4939 6.6H57.7499L53.2619 18H51.9899L48.7019 9.384H49.4939L46.1819 18H44.9339ZM60.0539 18V1.344H62.3099V18H60.0539ZM61.5899 10.68V8.616H70.2779V10.68H61.5899ZM61.5899 3.408V1.344H70.6859V3.408H61.5899ZM77.8477 18.24C76.9197 18.24 76.0797 18.032 75.3277 17.616C74.5917 17.184 74.0157 16.592 73.5997 15.84C73.1837 15.088 72.9757 14.216 72.9757 13.224V6.6H75.1357V13.128C75.1357 13.752 75.2397 14.296 75.4477 14.76C75.6717 15.208 75.9917 15.552 76.4077 15.792C76.8237 16.032 77.3117 16.152 77.8717 16.152C78.7197 16.152 79.3837 15.888 79.8637 15.36C80.3437 14.816 80.5837 14.072 80.5837 13.128V6.6H82.7437V13.224C82.7437 14.216 82.5357 15.088 82.1197 15.84C81.7037 16.592 81.1277 17.184 80.3917 17.616C79.6717 18.032 78.8237 18.24 77.8477 18.24ZM93.7027 18V11.352C93.7027 10.488 93.4307 9.776 92.8867 9.216C92.3427 8.656 91.6387 8.376 90.7747 8.376C90.1987 8.376 89.6867 8.504 89.2387 8.76C88.7907 9.016 88.4387 9.368 88.1827 9.816C87.9267 10.264 87.7987 10.776 87.7987 11.352L86.9107 10.848C86.9107 9.984 87.1027 9.216 87.4867 8.544C87.8707 7.872 88.4067 7.344 89.0947 6.96C89.7827 6.56 90.5587 6.36 91.4227 6.36C92.2867 6.36 93.0467 6.576 93.7027 7.008C94.3747 7.44 94.9027 8.008 95.2867 8.712C95.6707 9.4 95.8627 10.136 95.8627 10.92V18H93.7027ZM85.6387 18V6.6H87.7987V18H85.6387ZM103.611 18.24C102.555 18.24 101.611 17.984 100.779 17.472C99.9471 16.944 99.2831 16.232 98.7871 15.336C98.3071 14.44 98.0671 13.432 98.0671 12.312C98.0671 11.192 98.3071 10.184 98.7871 9.288C99.2831 8.392 99.9471 7.68 100.779 7.152C101.611 6.624 102.555 6.36 103.611 6.36C104.459 6.36 105.227 6.544 105.915 6.912C106.603 7.264 107.155 7.76 107.571 8.4C108.003 9.024 108.243 9.752 108.291 10.584V14.016C108.243 14.832 108.011 15.56 107.595 16.2C107.179 16.84 106.627 17.344 105.939 17.712C105.251 18.064 104.475 18.24 103.611 18.24ZM103.971 16.2C104.691 16.2 105.315 16.032 105.843 15.696C106.387 15.36 106.811 14.904 107.115 14.328C107.419 13.736 107.571 13.064 107.571 12.312C107.571 11.528 107.411 10.848 107.091 10.272C106.787 9.696 106.363 9.24 105.819 8.904C105.291 8.568 104.667 8.4 103.947 8.4C103.227 8.4 102.595 8.568 102.051 8.904C101.507 9.24 101.075 9.704 100.755 10.296C100.451 10.872 100.299 11.536 100.299 12.288C100.299 13.056 100.451 13.736 100.755 14.328C101.075 14.904 101.507 15.36 102.051 15.696C102.611 16.032 103.251 16.2 103.971 16.2ZM109.611 18H107.427V14.928L107.835 12.144L107.427 9.384V0.863999H109.611V18ZM119.38 18.24C118.148 18.24 117.044 17.968 116.068 17.424C115.108 16.864 114.348 16.104 113.788 15.144C113.228 14.168 112.948 13.064 112.948 11.832V1.344H115.204V11.784C115.204 12.664 115.388 13.424 115.756 14.064C116.124 14.704 116.62 15.2 117.244 15.552C117.884 15.904 118.596 16.08 119.38 16.08C120.196 16.08 120.908 15.904 121.516 15.552C122.14 15.2 122.628 14.704 122.98 14.064C123.348 13.424 123.532 12.672 123.532 11.808V1.344H125.812V11.856C125.812 13.088 125.532 14.184 124.972 15.144C124.412 16.104 123.652 16.864 122.692 17.424C121.732 17.968 120.628 18.24 119.38 18.24Z" fill="#00584B"/>
</svg>
