<svg width="20" height="20" viewBox="0 0 20 20" fill="none" xmlns="http://www.w3.org/2000/svg">
<path fill-rule="evenodd" clip-rule="evenodd" d="M6.87533 7.5C6.87533 5.77411 8.27444 4.375 10.0003 4.375C11.7262 4.375 13.1253 5.77411 13.1253 7.5C13.1253 9.22589 11.7262 10.625 10.0003 10.625C8.27444 10.625 6.87533 9.22589 6.87533 7.5ZM10.0003 5.625C8.96479 5.625 8.12533 6.46447 8.12533 7.5C8.12533 8.53553 8.96479 9.375 10.0003 9.375C11.0359 9.375 11.8753 8.53553 11.8753 7.5C11.8753 6.46447 11.0359 5.625 10.0003 5.625Z" fill="#7F7F7F"/>
<path fill-rule="evenodd" clip-rule="evenodd" d="M1.04199 10C1.04199 5.05245 5.05278 1.04167 10.0003 1.04167C14.9479 1.04167 18.9587 5.05245 18.9587 10C18.9587 14.9476 14.9479 18.9583 10.0003 18.9583C5.05278 18.9583 1.04199 14.9476 1.04199 10ZM10.0003 2.29167C5.74313 2.29167 2.29199 5.74281 2.29199 10C2.29199 12.1213 3.14888 14.0425 4.53541 15.4363C4.68574 14.6253 4.98111 13.8607 5.57397 13.2459C6.46076 12.3263 7.8788 11.875 10.0003 11.875C12.1218 11.875 13.5398 12.3263 14.4266 13.2459C15.0195 13.8608 15.3148 14.6254 15.4652 15.4364C16.8517 14.0426 17.7087 12.1214 17.7087 10C17.7087 5.74281 14.2575 2.29167 10.0003 2.29167ZM14.3284 16.3795C14.2435 15.3696 14.0242 14.6294 13.5268 14.1136C12.9856 13.5523 11.9827 13.125 10.0003 13.125C8.01782 13.125 7.015 13.5523 6.47378 14.1136C5.97638 14.6294 5.75708 15.3695 5.67218 16.3794C6.90603 17.2182 8.39593 17.7083 10.0003 17.7083C11.6047 17.7083 13.0946 17.2182 14.3284 16.3795Z" fill="#7F7F7F"/>
</svg>
